<mxfile host="app.diagrams.net" agent="Mozilla/5.0 (Windows NT 10.0; Win64; x64) AppleWebKit/537.36 (KHTML, like Gecko) Chrome/135.0.0.0 Safari/537.36" version="26.2.12" pages="2">
  <diagram name="model" id="2-Ae6M4YGkvWDGVQDyvm">
    <mxGraphModel dx="1429" dy="859" grid="1" gridSize="10" guides="1" tooltips="1" connect="1" arrows="1" fold="1" page="1" pageScale="1" pageWidth="1920" pageHeight="1200" math="0" shadow="0">
      <root>
        <mxCell id="0" />
        <mxCell id="1" parent="0" />
        <mxCell id="ijUTi8akeTlfG-RaINgu-1" value="EventNotification" style="swimlane;fontStyle=0;childLayout=stackLayout;horizontal=1;startSize=30;horizontalStack=0;resizeParent=1;resizeParentMax=0;resizeLast=0;collapsible=1;marginBottom=0;whiteSpace=wrap;html=1;" parent="1" vertex="1">
          <mxGeometry x="340" y="110" width="140" height="300" as="geometry" />
        </mxCell>
        <mxCell id="ijUTi8akeTlfG-RaINgu-2" value="deliver : boolean" style="text;strokeColor=none;fillColor=none;align=left;verticalAlign=middle;spacingLeft=4;spacingRight=4;overflow=hidden;points=[[0,0.5],[1,0.5]];portConstraint=eastwest;rotatable=0;whiteSpace=wrap;html=1;" parent="ijUTi8akeTlfG-RaINgu-1" vertex="1">
          <mxGeometry y="30" width="140" height="30" as="geometry" />
        </mxCell>
        <mxCell id="ijUTi8akeTlfG-RaINgu-3" value="clientId : Long" style="text;strokeColor=none;fillColor=none;align=left;verticalAlign=middle;spacingLeft=4;spacingRight=4;overflow=hidden;points=[[0,0.5],[1,0.5]];portConstraint=eastwest;rotatable=0;whiteSpace=wrap;html=1;" parent="ijUTi8akeTlfG-RaINgu-1" vertex="1">
          <mxGeometry y="60" width="140" height="30" as="geometry" />
        </mxCell>
        <mxCell id="ijUTi8akeTlfG-RaINgu-4" value="webhockUrl : String&lt;div&gt;&lt;br&gt;&lt;/div&gt;" style="text;strokeColor=none;fillColor=none;align=left;verticalAlign=middle;spacingLeft=4;spacingRight=4;overflow=hidden;points=[[0,0.5],[1,0.5]];portConstraint=eastwest;rotatable=0;whiteSpace=wrap;html=1;" parent="ijUTi8akeTlfG-RaINgu-1" vertex="1">
          <mxGeometry y="90" width="140" height="30" as="geometry" />
        </mxCell>
        <mxCell id="ijUTi8akeTlfG-RaINgu-5" value="eventId: Long&lt;div&gt;&lt;br&gt;&lt;/div&gt;" style="text;strokeColor=none;fillColor=none;align=left;verticalAlign=middle;spacingLeft=4;spacingRight=4;overflow=hidden;points=[[0,0.5],[1,0.5]];portConstraint=eastwest;rotatable=0;whiteSpace=wrap;html=1;" parent="ijUTi8akeTlfG-RaINgu-1" vertex="1">
          <mxGeometry y="120" width="140" height="30" as="geometry" />
        </mxCell>
        <mxCell id="V3wGfVcUluY8xS1QGYti-2" value="creationDate: date&lt;div&gt;&lt;br&gt;&lt;/div&gt;" style="text;strokeColor=none;fillColor=none;align=left;verticalAlign=middle;spacingLeft=4;spacingRight=4;overflow=hidden;points=[[0,0.5],[1,0.5]];portConstraint=eastwest;rotatable=0;whiteSpace=wrap;html=1;" vertex="1" parent="ijUTi8akeTlfG-RaINgu-1">
          <mxGeometry y="150" width="140" height="30" as="geometry" />
        </mxCell>
        <mxCell id="V3wGfVcUluY8xS1QGYti-4" value="updateDate: date&lt;div&gt;&lt;br&gt;&lt;/div&gt;" style="text;strokeColor=none;fillColor=none;align=left;verticalAlign=middle;spacingLeft=4;spacingRight=4;overflow=hidden;points=[[0,0.5],[1,0.5]];portConstraint=eastwest;rotatable=0;whiteSpace=wrap;html=1;" vertex="1" parent="ijUTi8akeTlfG-RaINgu-1">
          <mxGeometry y="180" width="140" height="30" as="geometry" />
        </mxCell>
        <mxCell id="V3wGfVcUluY8xS1QGYti-3" value="userCreation : String&lt;div&gt;&lt;br&gt;&lt;/div&gt;" style="text;strokeColor=none;fillColor=none;align=left;verticalAlign=middle;spacingLeft=4;spacingRight=4;overflow=hidden;points=[[0,0.5],[1,0.5]];portConstraint=eastwest;rotatable=0;whiteSpace=wrap;html=1;" vertex="1" parent="ijUTi8akeTlfG-RaINgu-1">
          <mxGeometry y="210" width="140" height="30" as="geometry" />
        </mxCell>
        <mxCell id="V3wGfVcUluY8xS1QGYti-5" value="userUpdate : String&lt;div&gt;&lt;br&gt;&lt;/div&gt;" style="text;strokeColor=none;fillColor=none;align=left;verticalAlign=middle;spacingLeft=4;spacingRight=4;overflow=hidden;points=[[0,0.5],[1,0.5]];portConstraint=eastwest;rotatable=0;whiteSpace=wrap;html=1;" vertex="1" parent="ijUTi8akeTlfG-RaINgu-1">
          <mxGeometry y="240" width="140" height="30" as="geometry" />
        </mxCell>
        <mxCell id="ijUTi8akeTlfG-RaINgu-13" value="id: Long&lt;div&gt;&lt;br&gt;&lt;/div&gt;" style="text;strokeColor=none;fillColor=none;align=left;verticalAlign=middle;spacingLeft=4;spacingRight=4;overflow=hidden;points=[[0,0.5],[1,0.5]];portConstraint=eastwest;rotatable=0;whiteSpace=wrap;html=1;" parent="ijUTi8akeTlfG-RaINgu-1" vertex="1">
          <mxGeometry y="270" width="140" height="30" as="geometry" />
        </mxCell>
        <mxCell id="ijUTi8akeTlfG-RaINgu-6" value="&lt;h1&gt;Event Types&lt;/h1&gt;&lt;div&gt;&lt;div style=&quot;text-align: left;&quot;&gt;&lt;ul&gt;&lt;li&gt;&lt;span style=&quot;background-color: transparent; color: light-dark(rgb(0, 0, 0), rgb(255, 255, 255));&quot;&gt;payment,&lt;/span&gt;&lt;/li&gt;&lt;li&gt;&amp;nbsp;account created,&amp;nbsp;&lt;/li&gt;&lt;li&gt;account updated,&amp;nbsp;&lt;/li&gt;&lt;li&gt;&lt;span style=&quot;background-color: transparent; color: light-dark(rgb(0, 0, 0), rgb(255, 255, 255));&quot;&gt;balance update&lt;/span&gt;&lt;/li&gt;&lt;/ul&gt;&lt;/div&gt;&lt;div&gt;&lt;div&gt;&lt;br&gt;&lt;/div&gt;&lt;/div&gt;&lt;/div&gt;" style="rounded=1;whiteSpace=wrap;html=1;" parent="1" vertex="1">
          <mxGeometry x="510" y="100" width="220" height="110" as="geometry" />
        </mxCell>
        <mxCell id="ijUTi8akeTlfG-RaINgu-8" value="Notification" style="swimlane;fontStyle=0;childLayout=stackLayout;horizontal=1;startSize=30;horizontalStack=0;resizeParent=1;resizeParentMax=0;resizeLast=0;collapsible=1;marginBottom=0;whiteSpace=wrap;html=1;" parent="1" vertex="1">
          <mxGeometry x="120" y="110" width="170" height="240" as="geometry" />
        </mxCell>
        <mxCell id="ijUTi8akeTlfG-RaINgu-9" value="delivered : boolean" style="text;strokeColor=none;fillColor=none;align=left;verticalAlign=middle;spacingLeft=4;spacingRight=4;overflow=hidden;points=[[0,0.5],[1,0.5]];portConstraint=eastwest;rotatable=0;whiteSpace=wrap;html=1;" parent="ijUTi8akeTlfG-RaINgu-8" vertex="1">
          <mxGeometry y="30" width="170" height="30" as="geometry" />
        </mxCell>
        <mxCell id="ijUTi8akeTlfG-RaINgu-10" value="clientId : Long" style="text;strokeColor=none;fillColor=none;align=left;verticalAlign=middle;spacingLeft=4;spacingRight=4;overflow=hidden;points=[[0,0.5],[1,0.5]];portConstraint=eastwest;rotatable=0;whiteSpace=wrap;html=1;" parent="ijUTi8akeTlfG-RaINgu-8" vertex="1">
          <mxGeometry y="60" width="170" height="30" as="geometry" />
        </mxCell>
        <mxCell id="ijUTi8akeTlfG-RaINgu-12" value="eventId: Long&lt;div&gt;&lt;br&gt;&lt;/div&gt;" style="text;strokeColor=none;fillColor=none;align=left;verticalAlign=middle;spacingLeft=4;spacingRight=4;overflow=hidden;points=[[0,0.5],[1,0.5]];portConstraint=eastwest;rotatable=0;whiteSpace=wrap;html=1;" parent="ijUTi8akeTlfG-RaINgu-8" vertex="1">
          <mxGeometry y="90" width="170" height="30" as="geometry" />
        </mxCell>
        <mxCell id="V3wGfVcUluY8xS1QGYti-1" value="creationDate: date&lt;div&gt;&lt;br&gt;&lt;/div&gt;" style="text;strokeColor=none;fillColor=none;align=left;verticalAlign=middle;spacingLeft=4;spacingRight=4;overflow=hidden;points=[[0,0.5],[1,0.5]];portConstraint=eastwest;rotatable=0;whiteSpace=wrap;html=1;" vertex="1" parent="ijUTi8akeTlfG-RaINgu-8">
          <mxGeometry y="120" width="170" height="30" as="geometry" />
        </mxCell>
        <mxCell id="V3wGfVcUluY8xS1QGYti-6" value="retryNumber: Long&lt;div&gt;&lt;br&gt;&lt;/div&gt;" style="text;strokeColor=none;fillColor=none;align=left;verticalAlign=middle;spacingLeft=4;spacingRight=4;overflow=hidden;points=[[0,0.5],[1,0.5]];portConstraint=eastwest;rotatable=0;whiteSpace=wrap;html=1;" vertex="1" parent="ijUTi8akeTlfG-RaINgu-8">
          <mxGeometry y="150" width="170" height="30" as="geometry" />
        </mxCell>
        <mxCell id="V3wGfVcUluY8xS1QGYti-8" value="status: Long&lt;div&gt;&lt;br&gt;&lt;/div&gt;" style="text;strokeColor=none;fillColor=none;align=left;verticalAlign=middle;spacingLeft=4;spacingRight=4;overflow=hidden;points=[[0,0.5],[1,0.5]];portConstraint=eastwest;rotatable=0;whiteSpace=wrap;html=1;" vertex="1" parent="ijUTi8akeTlfG-RaINgu-8">
          <mxGeometry y="180" width="170" height="30" as="geometry" />
        </mxCell>
        <mxCell id="ijUTi8akeTlfG-RaINgu-14" value="id: Long&lt;div&gt;&lt;br&gt;&lt;/div&gt;" style="text;strokeColor=none;fillColor=none;align=left;verticalAlign=middle;spacingLeft=4;spacingRight=4;overflow=hidden;points=[[0,0.5],[1,0.5]];portConstraint=eastwest;rotatable=0;whiteSpace=wrap;html=1;" parent="ijUTi8akeTlfG-RaINgu-8" vertex="1">
          <mxGeometry y="210" width="170" height="30" as="geometry" />
        </mxCell>
        <mxCell id="V3wGfVcUluY8xS1QGYti-7" value="Max number of retries could be a system parameter.&lt;div&gt;The value could be 5 for example. This could be defined in a parameter file in the service&lt;/div&gt;" style="shape=note;whiteSpace=wrap;html=1;backgroundOutline=1;darkOpacity=0.05;" vertex="1" parent="1">
          <mxGeometry x="510" y="270" width="180" height="120" as="geometry" />
        </mxCell>
        <mxCell id="V3wGfVcUluY8xS1QGYti-9" value="&lt;h1&gt;StatusTypes&lt;/h1&gt;&lt;div&gt;&lt;div style=&quot;text-align: left;&quot;&gt;&lt;ul&gt;&lt;li&gt;&lt;span style=&quot;background-color: transparent; color: light-dark(rgb(0, 0, 0), rgb(255, 255, 255));&quot;&gt;deliver failed&lt;/span&gt;&lt;/li&gt;&lt;li&gt;success&lt;/li&gt;&lt;/ul&gt;&lt;/div&gt;&lt;div&gt;&lt;div&gt;&lt;br&gt;&lt;/div&gt;&lt;/div&gt;&lt;/div&gt;" style="rounded=1;whiteSpace=wrap;html=1;" vertex="1" parent="1">
          <mxGeometry x="770" y="100" width="220" height="110" as="geometry" />
        </mxCell>
        <mxCell id="V3wGfVcUluY8xS1QGYti-11" value="notifications-retry-processor&lt;div&gt;&lt;br&gt;&lt;/div&gt;" style="shape=process;whiteSpace=wrap;html=1;backgroundOutline=1;" vertex="1" parent="1">
          <mxGeometry x="100" y="580" width="250" height="180" as="geometry" />
        </mxCell>
        <mxCell id="V3wGfVcUluY8xS1QGYti-22" value="Mindmap" style="swimlane;startSize=20;horizontal=1;containerType=tree;" vertex="1" parent="1">
          <mxGeometry x="520" y="470" width="570" height="230" as="geometry" />
        </mxCell>
        <mxCell id="V3wGfVcUluY8xS1QGYti-23" value="" style="edgeStyle=entityRelationEdgeStyle;startArrow=none;endArrow=none;segment=10;curved=1;sourcePerimeterSpacing=0;targetPerimeterSpacing=0;rounded=0;" edge="1" parent="V3wGfVcUluY8xS1QGYti-22" source="V3wGfVcUluY8xS1QGYti-27" target="V3wGfVcUluY8xS1QGYti-28">
          <mxGeometry relative="1" as="geometry" />
        </mxCell>
        <mxCell id="V3wGfVcUluY8xS1QGYti-24" value="" style="edgeStyle=entityRelationEdgeStyle;startArrow=none;endArrow=none;segment=10;curved=1;sourcePerimeterSpacing=0;targetPerimeterSpacing=0;rounded=0;" edge="1" parent="V3wGfVcUluY8xS1QGYti-22" source="V3wGfVcUluY8xS1QGYti-27" target="V3wGfVcUluY8xS1QGYti-29">
          <mxGeometry relative="1" as="geometry" />
        </mxCell>
        <mxCell id="V3wGfVcUluY8xS1QGYti-25" value="" style="edgeStyle=entityRelationEdgeStyle;startArrow=none;endArrow=none;segment=10;curved=1;sourcePerimeterSpacing=0;targetPerimeterSpacing=0;rounded=0;" edge="1" parent="V3wGfVcUluY8xS1QGYti-22" source="V3wGfVcUluY8xS1QGYti-27" target="V3wGfVcUluY8xS1QGYti-30">
          <mxGeometry relative="1" as="geometry" />
        </mxCell>
        <mxCell id="V3wGfVcUluY8xS1QGYti-26" value="" style="edgeStyle=entityRelationEdgeStyle;startArrow=none;endArrow=none;segment=10;curved=1;sourcePerimeterSpacing=0;targetPerimeterSpacing=0;rounded=0;" edge="1" parent="V3wGfVcUluY8xS1QGYti-22" source="V3wGfVcUluY8xS1QGYti-27" target="V3wGfVcUluY8xS1QGYti-31">
          <mxGeometry relative="1" as="geometry" />
        </mxCell>
        <mxCell id="V3wGfVcUluY8xS1QGYti-27" value="Central Idea" style="ellipse;whiteSpace=wrap;html=1;align=center;treeFolding=1;treeMoving=1;newEdgeStyle={&quot;edgeStyle&quot;:&quot;entityRelationEdgeStyle&quot;,&quot;startArrow&quot;:&quot;none&quot;,&quot;endArrow&quot;:&quot;none&quot;,&quot;segment&quot;:10,&quot;curved&quot;:1,&quot;sourcePerimeterSpacing&quot;:0,&quot;targetPerimeterSpacing&quot;:0};" vertex="1" parent="V3wGfVcUluY8xS1QGYti-22">
          <mxGeometry x="160" y="60" width="100" height="40" as="geometry" />
        </mxCell>
        <mxCell id="V3wGfVcUluY8xS1QGYti-28" value="Topic" style="whiteSpace=wrap;html=1;rounded=1;arcSize=50;align=center;verticalAlign=middle;strokeWidth=1;autosize=1;spacing=4;treeFolding=1;treeMoving=1;newEdgeStyle={&quot;edgeStyle&quot;:&quot;entityRelationEdgeStyle&quot;,&quot;startArrow&quot;:&quot;none&quot;,&quot;endArrow&quot;:&quot;none&quot;,&quot;segment&quot;:10,&quot;curved&quot;:1,&quot;sourcePerimeterSpacing&quot;:0,&quot;targetPerimeterSpacing&quot;:0};" vertex="1" parent="V3wGfVcUluY8xS1QGYti-22">
          <mxGeometry x="320" y="40" width="80" height="20" as="geometry" />
        </mxCell>
        <mxCell id="V3wGfVcUluY8xS1QGYti-29" value="Branch" style="whiteSpace=wrap;html=1;shape=partialRectangle;top=0;left=0;bottom=1;right=0;points=[[0,1],[1,1]];fillColor=none;align=center;verticalAlign=bottom;routingCenterY=0.5;snapToPoint=1;autosize=1;treeFolding=1;treeMoving=1;newEdgeStyle={&quot;edgeStyle&quot;:&quot;entityRelationEdgeStyle&quot;,&quot;startArrow&quot;:&quot;none&quot;,&quot;endArrow&quot;:&quot;none&quot;,&quot;segment&quot;:10,&quot;curved&quot;:1,&quot;sourcePerimeterSpacing&quot;:0,&quot;targetPerimeterSpacing&quot;:0};" vertex="1" parent="V3wGfVcUluY8xS1QGYti-22">
          <mxGeometry x="320" y="80" width="72" height="26" as="geometry" />
        </mxCell>
        <mxCell id="V3wGfVcUluY8xS1QGYti-30" value="Topic" style="whiteSpace=wrap;html=1;rounded=1;arcSize=50;align=center;verticalAlign=middle;strokeWidth=1;autosize=1;spacing=4;treeFolding=1;treeMoving=1;newEdgeStyle={&quot;edgeStyle&quot;:&quot;entityRelationEdgeStyle&quot;,&quot;startArrow&quot;:&quot;none&quot;,&quot;endArrow&quot;:&quot;none&quot;,&quot;segment&quot;:10,&quot;curved&quot;:1,&quot;sourcePerimeterSpacing&quot;:0,&quot;targetPerimeterSpacing&quot;:0};" vertex="1" parent="V3wGfVcUluY8xS1QGYti-22">
          <mxGeometry x="20" y="40" width="80" height="20" as="geometry" />
        </mxCell>
        <mxCell id="V3wGfVcUluY8xS1QGYti-31" value="Branch" style="whiteSpace=wrap;html=1;shape=partialRectangle;top=0;left=0;bottom=1;right=0;points=[[0,1],[1,1]];fillColor=none;align=center;verticalAlign=bottom;routingCenterY=0.5;snapToPoint=1;autosize=1;treeFolding=1;treeMoving=1;newEdgeStyle={&quot;edgeStyle&quot;:&quot;entityRelationEdgeStyle&quot;,&quot;startArrow&quot;:&quot;none&quot;,&quot;endArrow&quot;:&quot;none&quot;,&quot;segment&quot;:10,&quot;curved&quot;:1,&quot;sourcePerimeterSpacing&quot;:0,&quot;targetPerimeterSpacing&quot;:0};" vertex="1" parent="V3wGfVcUluY8xS1QGYti-22">
          <mxGeometry x="20" y="80" width="72" height="26" as="geometry" />
        </mxCell>
      </root>
    </mxGraphModel>
  </diagram>
  <diagram id="aaMQY2Q3f2oi1lDKo2yU" name="notification-retry-processor">
    <mxGraphModel dx="1215" dy="730" grid="1" gridSize="10" guides="1" tooltips="1" connect="1" arrows="1" fold="1" page="1" pageScale="1" pageWidth="1920" pageHeight="1200" math="0" shadow="0">
      <root>
        <mxCell id="0" />
        <mxCell id="1" parent="0" />
        <mxCell id="g4zzU9KEbJ5A4syPF7uQ-3" value="Process data" style="shape=process;whiteSpace=wrap;html=1;backgroundOutline=1;" vertex="1" parent="1">
          <mxGeometry x="555" y="202.5" width="150" height="65" as="geometry" />
        </mxCell>
        <mxCell id="g4zzU9KEbJ5A4syPF7uQ-7" style="edgeStyle=orthogonalEdgeStyle;rounded=0;orthogonalLoop=1;jettySize=auto;html=1;entryX=0;entryY=0.5;entryDx=0;entryDy=0;" edge="1" parent="1" source="g4zzU9KEbJ5A4syPF7uQ-4" target="g4zzU9KEbJ5A4syPF7uQ-3">
          <mxGeometry relative="1" as="geometry" />
        </mxCell>
        <mxCell id="g4zzU9KEbJ5A4syPF7uQ-11" value="Text" style="edgeLabel;html=1;align=center;verticalAlign=middle;resizable=0;points=[];" vertex="1" connectable="0" parent="g4zzU9KEbJ5A4syPF7uQ-7">
          <mxGeometry x="0.0108" y="-2" relative="1" as="geometry">
            <mxPoint x="-2" y="-1" as="offset" />
          </mxGeometry>
        </mxCell>
        <mxCell id="g4zzU9KEbJ5A4syPF7uQ-4" value="Load data with error and number of retries lower that MAX_RETRY&lt;div&gt;&lt;br&gt;&lt;div&gt;&lt;br&gt;&lt;/div&gt;&lt;/div&gt;" style="rounded=1;whiteSpace=wrap;html=1;absoluteArcSize=1;arcSize=14;strokeWidth=2;" vertex="1" parent="1">
          <mxGeometry x="140" y="200" width="190" height="70" as="geometry" />
        </mxCell>
        <mxCell id="g4zzU9KEbJ5A4syPF7uQ-8" value="notification-retry-processor&lt;div&gt;&lt;br&gt;&lt;/div&gt;" style="text;html=1;align=center;verticalAlign=middle;whiteSpace=wrap;rounded=0;fontSize=20;fontStyle=1" vertex="1" parent="1">
          <mxGeometry x="490" y="60" width="280" height="30" as="geometry" />
        </mxCell>
        <mxCell id="g4zzU9KEbJ5A4syPF7uQ-9" value="" style="shape=callout;whiteSpace=wrap;html=1;perimeter=calloutPerimeter;direction=west;" vertex="1" parent="1">
          <mxGeometry x="560" y="340" width="120" height="130" as="geometry" />
        </mxCell>
        <mxCell id="g4zzU9KEbJ5A4syPF7uQ-10" style="edgeStyle=orthogonalEdgeStyle;rounded=0;orthogonalLoop=1;jettySize=auto;html=1;entryX=0.456;entryY=1.036;entryDx=0;entryDy=0;entryPerimeter=0;" edge="1" parent="1" source="g4zzU9KEbJ5A4syPF7uQ-9" target="g4zzU9KEbJ5A4syPF7uQ-3">
          <mxGeometry relative="1" as="geometry" />
        </mxCell>
      </root>
    </mxGraphModel>
  </diagram>
</mxfile>
